<svg width="497" height="435" viewBox="0 0 497 435" fill="none" xmlns="http://www.w3.org/2000/svg">
<g opacity="0.07">
<path d="M439.387 -81.3488C379.929 -168.094 280.11 -225 167 -225C-15.254 -225 -163 -77.2541 -163 105C-163 131.515 -159.873 157.3 -153.967 182.006L14.0818 13.9568C30.191 -2.15237 56.309 -2.15237 72.4182 13.9568L208.25 149.789L439.387 -81.3488Z" fill="#8794BA"/>
<path d="M478.609 -3.89809L237.418 237.293C221.309 253.402 195.191 253.402 179.082 237.293L43.25 101.461L-121.186 265.897C-64.7343 366.793 43.1675 435 167 435C349.254 435 497 287.254 497 105C497 66.8414 490.523 30.1957 478.609 -3.89809Z" fill="#8794BA"/>
</g>
</svg>
